<svg width="123" height="123" viewBox="0 0 123 123" fill="none" xmlns="http://www.w3.org/2000/svg">
<g clip-path="url(#clip0_2227_431)">
<path d="M120.887 52.7951L118.429 43.0598L84.7675 50.4787L110.961 27.853L104.566 20.1286L77.406 41.3647L91.1911 9.71309L82.0307 5.51964L66.8173 36.3256L65.4079 1.8583L55.3141 2.03449L55.1061 36.396L38.756 5.94013L29.7476 10.4507L44.5593 41.4693L16.5376 21.0623L10.4173 29.0722L37.2476 50.6384L3.14476 44.3353L1.02746 54.1506L34.6862 62.0018L1.18856 71.0923L3.57982 80.8288L37.3085 73.4087L11.115 96.0345L17.5099 103.759L44.67 82.5227L30.885 114.174L40.0453 118.368L55.2576 87.4949L56.6681 122.029L66.7619 121.853L66.9699 87.4914L83.2527 117.948L92.3284 113.437L77.5167 82.4182L105.538 102.825L111.659 94.8153L84.8284 73.249L118.931 79.5521L120.981 69.738L87.3899 61.8856L120.887 52.7951Z" fill="#FF834F"/>
</g>
<defs>
<clipPath id="clip0_2227_431">
<rect width="120" height="120" fill="white" transform="translate(0 3) rotate(-1)"/>
</clipPath>
</defs>
</svg>
