<svg width="20" height="20" viewBox="0 0 20 20" fill="none" xmlns="http://www.w3.org/2000/svg">
<mask id="mask0_2199_311" style="mask-type:alpha" maskUnits="userSpaceOnUse" x="0" y="0" width="20" height="20">
<rect width="20" height="20" fill="#3DCFB6"/>
</mask>
<g mask="url(#mask0_2199_311)">
<path d="M15.1888 10.8154L3.48858 10.8098C3.32545 10.8097 3.20028 10.7593 3.11307 10.6586C3.02577 10.5577 2.98211 10.4257 2.98211 10.2624C2.98221 10.0993 3.03078 9.96922 3.12781 9.87219C3.22484 9.77516 3.35491 9.7266 3.51804 9.7265L15.1888 9.7209L10.1087 4.64078C10.0002 4.53226 9.94564 4.40483 9.94505 4.2585C9.94456 4.11227 9.99813 3.98533 10.1058 3.8777C10.2135 3.76996 10.3414 3.71541 10.4895 3.71403C10.6378 3.71266 10.7662 3.76623 10.8747 3.87475L16.7944 9.79441C16.9287 9.92866 16.9958 10.0865 16.9958 10.268C16.9958 10.4497 16.9287 10.6076 16.7946 10.7418L10.8748 16.6616C10.7662 16.7701 10.6389 16.8246 10.4926 16.8251C10.3463 16.8257 10.2193 16.7722 10.1117 16.6645C10.0039 16.5568 9.94937 16.4288 9.948 16.2805C9.94662 16.1324 10.0002 16.0041 10.1087 15.8956L15.1888 10.8154Z" fill="#F8F7E5"/>
</g>
</svg>
