<svg width="14" height="15" viewBox="0 0 14 15" fill="none" xmlns="http://www.w3.org/2000/svg">
<path d="M6.06927 8.6987L4.63594 7.26536C4.51372 7.14314 4.35816 7.08203 4.16927 7.08203C3.98038 7.08203 3.82483 7.14314 3.7026 7.26536C3.58038 7.38759 3.51927 7.54314 3.51927 7.73203C3.51927 7.92092 3.58038 8.07648 3.7026 8.1987L5.6026 10.0987C5.73594 10.232 5.89149 10.2987 6.06927 10.2987C6.24705 10.2987 6.4026 10.232 6.53594 10.0987L10.3026 6.33203C10.4248 6.20981 10.4859 6.05425 10.4859 5.86536C10.4859 5.67648 10.4248 5.52092 10.3026 5.3987C10.1804 5.27648 10.0248 5.21536 9.83594 5.21536C9.64705 5.21536 9.49149 5.27648 9.36927 5.3987L6.06927 8.6987ZM7.0026 14.1654C6.08038 14.1654 5.21372 13.9904 4.4026 13.6404C3.59149 13.2904 2.88594 12.8154 2.28594 12.2154C1.68594 11.6154 1.21094 10.9098 0.860937 10.0987C0.510937 9.28759 0.335938 8.42092 0.335938 7.4987C0.335938 6.57648 0.510937 5.70981 0.860937 4.8987C1.21094 4.08759 1.68594 3.38203 2.28594 2.78203C2.88594 2.18203 3.59149 1.70703 4.4026 1.35703C5.21372 1.00703 6.08038 0.832031 7.0026 0.832031C7.92483 0.832031 8.79149 1.00703 9.6026 1.35703C10.4137 1.70703 11.1193 2.18203 11.7193 2.78203C12.3193 3.38203 12.7943 4.08759 13.1443 4.8987C13.4943 5.70981 13.6693 6.57648 13.6693 7.4987C13.6693 8.42092 13.4943 9.28759 13.1443 10.0987C12.7943 10.9098 12.3193 11.6154 11.7193 12.2154C11.1193 12.8154 10.4137 13.2904 9.6026 13.6404C8.79149 13.9904 7.92483 14.1654 7.0026 14.1654Z" fill="#F8F7E5"/>
</svg>
